{
	"patcher" : 	{
		"fileversion" : 1,
		"appversion" : 		{
			"major" : 7,
			"minor" : 1,
			"revision" : 0,
			"architecture" : "x86",
			"modernui" : 1
		}
,
		"rect" : [ 34.0, 79.0, 840.0, 783.0 ],
		"bglocked" : 0,
		"openinpresentation" : 0,
		"default_fontsize" : 12.0,
		"default_fontface" : 0,
		"default_fontname" : "Arial",
		"gridonopen" : 1,
		"gridsize" : [ 15.0, 15.0 ],
		"gridsnaponopen" : 1,
		"objectsnaponopen" : 1,
		"statusbarvisible" : 2,
		"toolbarvisible" : 1,
		"lefttoolbarpinned" : 0,
		"toptoolbarpinned" : 0,
		"righttoolbarpinned" : 0,
		"bottomtoolbarpinned" : 0,
		"toolbars_unpinned_last_save" : 0,
		"tallnewobj" : 0,
		"boxanimatetime" : 200,
		"enablehscroll" : 1,
		"enablevscroll" : 1,
		"devicewidth" : 0.0,
		"description" : "",
		"digest" : "",
		"tags" : "",
		"style" : "",
		"subpatcher_template" : "",
		"boxes" : [ 			{
				"box" : 				{
					"id" : "obj-30",
					"maxclass" : "newobj",
					"numinlets" : 1,
					"numoutlets" : 3,
					"outlettype" : [ "", "int", "int" ],
					"patching_rect" : [ 47.765961, 342.0, 50.0, 22.0 ],
					"style" : "",
					"text" : "change"
				}

			}
, 			{
				"box" : 				{
					"id" : "obj-27",
					"maxclass" : "newobj",
					"numinlets" : 2,
					"numoutlets" : 1,
					"outlettype" : [ "int" ],
					"patching_rect" : [ 119.0, 342.0, 29.5, 22.0 ],
					"style" : "",
					"text" : "+ 1"
				}

			}
, 			{
				"box" : 				{
					"bgmode" : 0,
					"border" : 0,
					"clickthrough" : 0,
					"enablehscroll" : 0,
					"enablevscroll" : 0,
					"extract" : 1,
					"id" : "obj-26",
					"lockeddragscroll" : 0,
					"maxclass" : "bpatcher",
					"name" : "bp.Stereo Mixer.maxpat",
					"numinlets" : 8,
					"numoutlets" : 2,
					"offset" : [ 0.0, 0.0 ],
					"outlettype" : [ "signal", "signal" ],
					"patching_rect" : [ 252.0, 655.0, 202.0, 116.0 ],
					"varname" : "bp.Stereo Mixer",
					"viewvisibility" : 1
				}

			}
, 			{
				"box" : 				{
					"allowreorder" : 1,
					"clipheight" : 48.166668,
					"data" : 					{
						"clips" : [ 							{
								"filename" : "jongly.aif",
								"filekind" : "audiofile",
								"selection" : [ 0.059574, 0.123404 ],
								"loop" : 0,
								"content_state" : 								{
									"originallength" : [ 0.0, "ticks" ],
									"basictuning" : [ 440 ],
									"originaltempo" : [ 120.0 ],
									"originallengthms" : [ 0.0 ],
									"pitchcorrection" : [ 0 ],
									"formantcorrection" : [ 0 ],
									"formant" : [ 1.0 ],
									"slurtime" : [ 0.0 ],
									"quality" : [ "basic" ],
									"speed" : [ 1.0 ],
									"play" : [ 0 ],
									"followglobaltempo" : [ 0 ],
									"mode" : [ "basic" ],
									"timestretch" : [ 0 ],
									"pitchshift" : [ 1.0 ]
								}

							}
, 							{
								"filename" : "jongly.aif",
								"filekind" : "audiofile",
								"selection" : [ 0.0, 0.059574 ],
								"loop" : 0,
								"content_state" : 								{
									"originallength" : [ 0.0, "ticks" ],
									"basictuning" : [ 440 ],
									"originaltempo" : [ 120.0 ],
									"originallengthms" : [ 0.0 ],
									"pitchcorrection" : [ 0 ],
									"formantcorrection" : [ 0 ],
									"formant" : [ 1.0 ],
									"slurtime" : [ 0.0 ],
									"quality" : [ "basic" ],
									"speed" : [ 1.0 ],
									"play" : [ 0 ],
									"followglobaltempo" : [ 0 ],
									"mode" : [ "basic" ],
									"timestretch" : [ 0 ],
									"pitchshift" : [ 1.0 ]
								}

							}
, 							{
								"filename" : "jongly.aif",
								"filekind" : "audiofile",
								"selection" : [ 0.212766, 0.276596 ],
								"loop" : 0,
								"content_state" : 								{
									"originallength" : [ 0.0, "ticks" ],
									"basictuning" : [ 440 ],
									"originaltempo" : [ 120.0 ],
									"originallengthms" : [ 0.0 ],
									"pitchcorrection" : [ 0 ],
									"formantcorrection" : [ 0 ],
									"formant" : [ 1.0 ],
									"slurtime" : [ 0.0 ],
									"quality" : [ "basic" ],
									"speed" : [ 1.0 ],
									"play" : [ 0 ],
									"followglobaltempo" : [ 0 ],
									"mode" : [ "basic" ],
									"timestretch" : [ 0 ],
									"pitchshift" : [ 1.0 ]
								}

							}
, 							{
								"filename" : "jongly.aif",
								"filekind" : "audiofile",
								"selection" : [ 0.425532, 0.748936 ],
								"loop" : 0,
								"content_state" : 								{
									"originallength" : [ 0.0, "ticks" ],
									"basictuning" : [ 440 ],
									"originaltempo" : [ 120.0 ],
									"originallengthms" : [ 0.0 ],
									"pitchcorrection" : [ 0 ],
									"formantcorrection" : [ 0 ],
									"formant" : [ 1.0 ],
									"slurtime" : [ 0.0 ],
									"quality" : [ "basic" ],
									"speed" : [ 1.0 ],
									"play" : [ 0 ],
									"followglobaltempo" : [ 0 ],
									"mode" : [ "basic" ],
									"timestretch" : [ 0 ],
									"pitchshift" : [ 1.0 ]
								}

							}
, 							{
								"filename" : "jongly.aif",
								"filekind" : "audiofile",
								"selection" : [ 0.353191, 0.421277 ],
								"loop" : 0,
								"content_state" : 								{
									"originallength" : [ 0.0, "ticks" ],
									"basictuning" : [ 440 ],
									"originaltempo" : [ 120.0 ],
									"originallengthms" : [ 0.0 ],
									"pitchcorrection" : [ 0 ],
									"formantcorrection" : [ 0 ],
									"formant" : [ 1.0 ],
									"slurtime" : [ 0.0 ],
									"quality" : [ "basic" ],
									"speed" : [ 1.0 ],
									"play" : [ 0 ],
									"followglobaltempo" : [ 0 ],
									"mode" : [ "basic" ],
									"timestretch" : [ 0 ],
									"pitchshift" : [ 1.0 ]
								}

							}
, 							{
								"filename" : "jongly.aif",
								"filekind" : "audiofile",
								"selection" : [ 0.608511, 0.778723 ],
								"loop" : 0,
								"content_state" : 								{
									"originallength" : [ 0.0, "ticks" ],
									"basictuning" : [ 440 ],
									"originaltempo" : [ 120.0 ],
									"originallengthms" : [ 0.0 ],
									"pitchcorrection" : [ 0 ],
									"formantcorrection" : [ 0 ],
									"formant" : [ 1.0 ],
									"slurtime" : [ 0.0 ],
									"quality" : [ "basic" ],
									"speed" : [ 1.0 ],
									"play" : [ 0 ],
									"followglobaltempo" : [ 0 ],
									"mode" : [ "basic" ],
									"timestretch" : [ 0 ],
									"pitchshift" : [ 1.0 ]
								}

							}
 ]
					}
,
					"id" : "obj-24",
					"maxclass" : "playlist~",
					"numinlets" : 1,
					"numoutlets" : 5,
					"outlettype" : [ "signal", "signal", "signal", "", "dictionary" ],
					"patching_rect" : [ 38.355942, 393.5, 290.0, 295.0 ],
					"style" : "",
					"waveformdisplay" : 0
				}

			}
, 			{
				"box" : 				{
					"id" : "obj-22",
					"maxclass" : "newobj",
					"numinlets" : 2,
					"numoutlets" : 1,
					"outlettype" : [ "signal" ],
					"patching_rect" : [ 522.0, 530.0, 29.5, 22.0 ],
					"style" : "",
					"text" : "*~"
				}

			}
, 			{
				"box" : 				{
					"id" : "obj-21",
					"maxclass" : "newobj",
					"numinlets" : 6,
					"numoutlets" : 1,
					"outlettype" : [ "" ],
					"patching_rect" : [ 430.0, 501.0, 96.0, 22.0 ],
					"style" : "",
					"text" : "scale -1. 1. 1. 0."
				}

			}
, 			{
				"box" : 				{
					"id" : "obj-20",
					"maxclass" : "newobj",
					"numinlets" : 2,
					"numoutlets" : 1,
					"outlettype" : [ "signal" ],
					"patching_rect" : [ 476.0, 530.0, 29.5, 22.0 ],
					"style" : "",
					"text" : "*~"
				}

			}
, 			{
				"box" : 				{
					"id" : "obj-19",
					"maxclass" : "newobj",
					"numinlets" : 6,
					"numoutlets" : 1,
					"outlettype" : [ "" ],
					"patching_rect" : [ 697.0, 299.0, 109.0, 22.0 ],
					"style" : "",
					"text" : "scale -1. 1. 0. 100."
				}

			}
, 			{
				"box" : 				{
					"id" : "obj-18",
					"maxclass" : "newobj",
					"numinlets" : 6,
					"numoutlets" : 1,
					"outlettype" : [ "" ],
					"patching_rect" : [ 593.0, 299.0, 96.0, 22.0 ],
					"style" : "",
					"text" : "scale -1. 1. 1. 4."
				}

			}
, 			{
				"box" : 				{
					"id" : "obj-16",
					"maxclass" : "newobj",
					"numinlets" : 6,
					"numoutlets" : 1,
					"outlettype" : [ "" ],
					"patching_rect" : [ 481.0, 299.0, 103.0, 22.0 ],
					"style" : "",
					"text" : "scale -1. 1. 1. 0.1"
				}

			}
, 			{
				"box" : 				{
					"bgmode" : 0,
					"border" : 0,
					"clickthrough" : 0,
					"enablehscroll" : 0,
					"enablevscroll" : 0,
					"id" : "obj-15",
					"lockeddragscroll" : 0,
					"maxclass" : "bpatcher",
					"name" : "Twangle.maxpat",
					"numinlets" : 4,
					"numoutlets" : 2,
					"offset" : [ 0.0, 0.0 ],
					"outlettype" : [ "signal", "signal" ],
					"patching_rect" : [ 476.0, 333.0, 264.0, 144.0 ],
					"viewvisibility" : 1
				}

			}
, 			{
				"box" : 				{
					"id" : "obj-13",
					"maxclass" : "button",
					"numinlets" : 1,
					"numoutlets" : 1,
					"outlettype" : [ "bang" ],
					"patching_rect" : [ 379.490906, 308.0, 24.0, 24.0 ],
					"style" : ""
				}

			}
, 			{
				"box" : 				{
					"id" : "obj-14",
					"maxclass" : "newobj",
					"numinlets" : 1,
					"numoutlets" : 2,
					"outlettype" : [ "bang", "bang" ],
					"patching_rect" : [ 379.490906, 267.0, 54.0, 22.0 ],
					"style" : "",
					"text" : "togedge"
				}

			}
, 			{
				"box" : 				{
					"id" : "obj-11",
					"maxclass" : "button",
					"numinlets" : 1,
					"numoutlets" : 1,
					"outlettype" : [ "bang" ],
					"patching_rect" : [ 307.945923, 308.0, 24.0, 24.0 ],
					"style" : ""
				}

			}
, 			{
				"box" : 				{
					"id" : "obj-12",
					"maxclass" : "newobj",
					"numinlets" : 1,
					"numoutlets" : 2,
					"outlettype" : [ "bang", "bang" ],
					"patching_rect" : [ 307.945923, 267.0, 54.0, 22.0 ],
					"style" : "",
					"text" : "togedge"
				}

			}
, 			{
				"box" : 				{
					"id" : "obj-9",
					"maxclass" : "button",
					"numinlets" : 1,
					"numoutlets" : 1,
					"outlettype" : [ "bang" ],
					"patching_rect" : [ 236.40094, 308.0, 24.0, 24.0 ],
					"style" : ""
				}

			}
, 			{
				"box" : 				{
					"id" : "obj-10",
					"maxclass" : "newobj",
					"numinlets" : 1,
					"numoutlets" : 2,
					"outlettype" : [ "bang", "bang" ],
					"patching_rect" : [ 236.40094, 267.0, 54.0, 22.0 ],
					"style" : "",
					"text" : "togedge"
				}

			}
, 			{
				"box" : 				{
					"id" : "obj-7",
					"maxclass" : "button",
					"numinlets" : 1,
					"numoutlets" : 1,
					"outlettype" : [ "bang" ],
					"patching_rect" : [ 164.855942, 308.0, 24.0, 24.0 ],
					"style" : ""
				}

			}
, 			{
				"box" : 				{
					"id" : "obj-8",
					"maxclass" : "newobj",
					"numinlets" : 1,
					"numoutlets" : 2,
					"outlettype" : [ "bang", "bang" ],
					"patching_rect" : [ 164.855942, 267.0, 54.0, 22.0 ],
					"style" : "",
					"text" : "togedge"
				}

			}
, 			{
				"box" : 				{
					"id" : "obj-5",
					"maxclass" : "button",
					"numinlets" : 1,
					"numoutlets" : 1,
					"outlettype" : [ "bang" ],
					"patching_rect" : [ 93.310951, 308.0, 24.0, 24.0 ],
					"style" : ""
				}

			}
, 			{
				"box" : 				{
					"id" : "obj-6",
					"maxclass" : "newobj",
					"numinlets" : 1,
					"numoutlets" : 2,
					"outlettype" : [ "bang", "bang" ],
					"patching_rect" : [ 93.310951, 267.0, 54.0, 22.0 ],
					"style" : "",
					"text" : "togedge"
				}

			}
, 			{
				"box" : 				{
					"id" : "obj-4",
					"maxclass" : "newobj",
					"numinlets" : 2,
					"numoutlets" : 1,
					"outlettype" : [ "int" ],
					"patching_rect" : [ 383.490906, 66.0, 35.0, 22.0 ],
					"style" : "",
					"text" : "== 5"
				}

			}
, 			{
				"box" : 				{
					"id" : "obj-3",
					"maxclass" : "newobj",
					"numinlets" : 2,
					"numoutlets" : 1,
					"outlettype" : [ "int" ],
					"patching_rect" : [ 238.400925, 66.0, 35.0, 22.0 ],
					"style" : "",
					"text" : "== 3"
				}

			}
, 			{
				"box" : 				{
					"id" : "obj-2",
					"maxclass" : "toggle",
					"numinlets" : 1,
					"numoutlets" : 1,
					"outlettype" : [ "int" ],
					"parameter_enable" : 0,
					"patching_rect" : [ 568.0, 223.0, 24.0, 24.0 ],
					"style" : ""
				}

			}
, 			{
				"box" : 				{
					"id" : "obj-1",
					"maxclass" : "toggle",
					"numinlets" : 1,
					"numoutlets" : 1,
					"outlettype" : [ "int" ],
					"parameter_enable" : 0,
					"patching_rect" : [ 664.0, 163.0, 24.0, 24.0 ],
					"style" : ""
				}

			}
, 			{
				"box" : 				{
					"id" : "obj-119",
					"maxclass" : "ezdac~",
					"numinlets" : 2,
					"numoutlets" : 0,
					"patching_rect" : [ 578.0, 577.0, 45.0, 45.0 ],
					"style" : ""
				}

			}
, 			{
				"box" : 				{
					"id" : "obj-117",
					"maxclass" : "button",
					"numinlets" : 1,
					"numoutlets" : 1,
					"outlettype" : [ "bang" ],
					"patching_rect" : [ 21.765961, 308.0, 24.0, 24.0 ],
					"style" : ""
				}

			}
, 			{
				"box" : 				{
					"id" : "obj-111",
					"maxclass" : "newobj",
					"numinlets" : 1,
					"numoutlets" : 2,
					"outlettype" : [ "bang", "bang" ],
					"patching_rect" : [ 21.765961, 267.0, 54.0, 22.0 ],
					"style" : "",
					"text" : "togedge"
				}

			}
, 			{
				"box" : 				{
					"id" : "obj-84",
					"maxclass" : "newobj",
					"numinlets" : 2,
					"numoutlets" : 1,
					"outlettype" : [ "int" ],
					"patching_rect" : [ 310.945923, 66.0, 35.0, 22.0 ],
					"style" : "",
					"text" : "== 4"
				}

			}
, 			{
				"box" : 				{
					"id" : "obj-85",
					"maxclass" : "newobj",
					"numinlets" : 2,
					"numoutlets" : 1,
					"outlettype" : [ "int" ],
					"patching_rect" : [ 20.765961, 66.0, 35.0, 22.0 ],
					"style" : "",
					"text" : "== 0"
				}

			}
, 			{
				"box" : 				{
					"id" : "obj-83",
					"maxclass" : "newobj",
					"numinlets" : 2,
					"numoutlets" : 1,
					"outlettype" : [ "int" ],
					"patching_rect" : [ 165.855942, 66.0, 35.0, 22.0 ],
					"style" : "",
					"text" : "== 2"
				}

			}
, 			{
				"box" : 				{
					"id" : "obj-82",
					"maxclass" : "newobj",
					"numinlets" : 2,
					"numoutlets" : 1,
					"outlettype" : [ "int" ],
					"patching_rect" : [ 93.310951, 66.0, 35.0, 22.0 ],
					"style" : "",
					"text" : "== 1"
				}

			}
, 			{
				"box" : 				{
					"id" : "obj-80",
					"maxclass" : "toggle",
					"numinlets" : 1,
					"numoutlets" : 1,
					"outlettype" : [ "int" ],
					"parameter_enable" : 0,
					"patching_rect" : [ 568.0, 163.0, 24.0, 24.0 ],
					"style" : ""
				}

			}
, 			{
				"box" : 				{
					"id" : "obj-79",
					"maxclass" : "toggle",
					"numinlets" : 1,
					"numoutlets" : 1,
					"outlettype" : [ "int" ],
					"parameter_enable" : 0,
					"patching_rect" : [ 664.0, 223.0, 24.0, 24.0 ],
					"style" : ""
				}

			}
, 			{
				"box" : 				{
					"id" : "obj-78",
					"maxclass" : "toggle",
					"numinlets" : 1,
					"numoutlets" : 1,
					"outlettype" : [ "int" ],
					"parameter_enable" : 0,
					"patching_rect" : [ 616.0, 243.0, 24.0, 24.0 ],
					"style" : ""
				}

			}
, 			{
				"box" : 				{
					"id" : "obj-77",
					"maxclass" : "toggle",
					"numinlets" : 1,
					"numoutlets" : 1,
					"outlettype" : [ "int" ],
					"parameter_enable" : 0,
					"patching_rect" : [ 616.0, 143.0, 24.0, 24.0 ],
					"style" : ""
				}

			}
, 			{
				"box" : 				{
					"bgmode" : 0,
					"border" : 0,
					"clickthrough" : 0,
					"enablehscroll" : 0,
					"enablevscroll" : 0,
					"id" : "obj-17",
					"lockeddragscroll" : 0,
					"maxclass" : "bpatcher",
					"name" : "BaseStationCommunication.maxpat",
					"numinlets" : 0,
					"numoutlets" : 4,
					"offset" : [ 0.0, 0.0 ],
					"outlettype" : [ "", "", "", "" ],
					"patching_rect" : [ 3.490906, 2.0, 483.0, 35.0 ],
					"viewvisibility" : 1
				}

			}
 ],
		"lines" : [ 			{
				"patchline" : 				{
					"destination" : [ "obj-14", 0 ],
					"disabled" : 0,
					"hidden" : 0,
					"source" : [ "obj-1", 0 ]
				}

			}
, 			{
				"patchline" : 				{
					"destination" : [ "obj-9", 0 ],
					"disabled" : 0,
					"hidden" : 0,
					"source" : [ "obj-10", 0 ]
				}

			}
, 			{
				"patchline" : 				{
					"destination" : [ "obj-117", 0 ],
					"disabled" : 0,
					"hidden" : 0,
					"source" : [ "obj-111", 0 ]
				}

			}
, 			{
				"patchline" : 				{
					"destination" : [ "obj-11", 0 ],
					"disabled" : 0,
					"hidden" : 0,
					"source" : [ "obj-12", 0 ]
				}

			}
, 			{
				"patchline" : 				{
					"destination" : [ "obj-13", 0 ],
					"disabled" : 0,
					"hidden" : 0,
					"source" : [ "obj-14", 0 ]
				}

			}
, 			{
				"patchline" : 				{
					"destination" : [ "obj-20", 1 ],
					"disabled" : 0,
					"hidden" : 0,
					"source" : [ "obj-15", 0 ]
				}

			}
, 			{
				"patchline" : 				{
					"destination" : [ "obj-22", 1 ],
					"disabled" : 0,
					"hidden" : 0,
					"source" : [ "obj-15", 1 ]
				}

			}
, 			{
				"patchline" : 				{
					"destination" : [ "obj-15", 0 ],
					"disabled" : 0,
					"hidden" : 0,
					"source" : [ "obj-16", 0 ]
				}

			}
, 			{
				"patchline" : 				{
					"destination" : [ "obj-16", 0 ],
					"disabled" : 0,
					"hidden" : 0,
					"source" : [ "obj-17", 0 ]
				}

			}
, 			{
				"patchline" : 				{
					"destination" : [ "obj-18", 0 ],
					"disabled" : 0,
					"hidden" : 0,
					"source" : [ "obj-17", 1 ]
				}

			}
, 			{
				"patchline" : 				{
					"destination" : [ "obj-19", 0 ],
					"disabled" : 0,
					"hidden" : 0,
					"source" : [ "obj-17", 2 ]
				}

			}
, 			{
				"patchline" : 				{
					"destination" : [ "obj-21", 0 ],
					"disabled" : 0,
					"hidden" : 0,
					"source" : [ "obj-17", 0 ]
				}

			}
, 			{
				"patchline" : 				{
					"destination" : [ "obj-27", 0 ],
					"disabled" : 0,
					"hidden" : 0,
					"source" : [ "obj-17", 3 ]
				}

			}
, 			{
				"patchline" : 				{
					"destination" : [ "obj-3", 0 ],
					"disabled" : 0,
					"hidden" : 0,
					"source" : [ "obj-17", 3 ]
				}

			}
, 			{
				"patchline" : 				{
					"destination" : [ "obj-4", 0 ],
					"disabled" : 0,
					"hidden" : 0,
					"source" : [ "obj-17", 3 ]
				}

			}
, 			{
				"patchline" : 				{
					"destination" : [ "obj-82", 0 ],
					"disabled" : 0,
					"hidden" : 0,
					"source" : [ "obj-17", 3 ]
				}

			}
, 			{
				"patchline" : 				{
					"destination" : [ "obj-83", 0 ],
					"disabled" : 0,
					"hidden" : 0,
					"source" : [ "obj-17", 3 ]
				}

			}
, 			{
				"patchline" : 				{
					"destination" : [ "obj-84", 0 ],
					"disabled" : 0,
					"hidden" : 0,
					"source" : [ "obj-17", 3 ]
				}

			}
, 			{
				"patchline" : 				{
					"destination" : [ "obj-85", 0 ],
					"disabled" : 0,
					"hidden" : 0,
					"source" : [ "obj-17", 3 ]
				}

			}
, 			{
				"patchline" : 				{
					"destination" : [ "obj-15", 1 ],
					"disabled" : 0,
					"hidden" : 0,
					"source" : [ "obj-18", 0 ]
				}

			}
, 			{
				"patchline" : 				{
					"destination" : [ "obj-15", 3 ],
					"disabled" : 0,
					"hidden" : 0,
					"source" : [ "obj-19", 0 ]
				}

			}
, 			{
				"patchline" : 				{
					"destination" : [ "obj-12", 0 ],
					"disabled" : 0,
					"hidden" : 0,
					"source" : [ "obj-2", 0 ]
				}

			}
, 			{
				"patchline" : 				{
					"destination" : [ "obj-26", 0 ],
					"disabled" : 0,
					"hidden" : 0,
					"source" : [ "obj-20", 0 ]
				}

			}
, 			{
				"patchline" : 				{
					"destination" : [ "obj-20", 0 ],
					"disabled" : 0,
					"hidden" : 0,
					"source" : [ "obj-21", 0 ]
				}

			}
, 			{
				"patchline" : 				{
					"destination" : [ "obj-22", 0 ],
					"disabled" : 0,
					"hidden" : 0,
					"source" : [ "obj-21", 0 ]
				}

			}
, 			{
				"patchline" : 				{
					"destination" : [ "obj-26", 1 ],
					"disabled" : 0,
					"hidden" : 0,
					"source" : [ "obj-22", 0 ]
				}

			}
, 			{
				"patchline" : 				{
					"destination" : [ "obj-26", 3 ],
					"disabled" : 0,
					"hidden" : 0,
					"source" : [ "obj-24", 1 ]
				}

			}
, 			{
				"patchline" : 				{
					"destination" : [ "obj-26", 2 ],
					"disabled" : 0,
					"hidden" : 0,
					"source" : [ "obj-24", 0 ]
				}

			}
, 			{
				"patchline" : 				{
					"destination" : [ "obj-119", 1 ],
					"disabled" : 0,
					"hidden" : 0,
					"source" : [ "obj-26", 1 ]
				}

			}
, 			{
				"patchline" : 				{
					"destination" : [ "obj-119", 0 ],
					"disabled" : 0,
					"hidden" : 0,
					"source" : [ "obj-26", 0 ]
				}

			}
, 			{
				"patchline" : 				{
					"destination" : [ "obj-30", 0 ],
					"disabled" : 0,
					"hidden" : 0,
					"source" : [ "obj-27", 0 ]
				}

			}
, 			{
				"patchline" : 				{
					"destination" : [ "obj-79", 0 ],
					"disabled" : 0,
					"hidden" : 0,
					"source" : [ "obj-3", 0 ]
				}

			}
, 			{
				"patchline" : 				{
					"destination" : [ "obj-24", 0 ],
					"disabled" : 0,
					"hidden" : 0,
					"source" : [ "obj-30", 0 ]
				}

			}
, 			{
				"patchline" : 				{
					"destination" : [ "obj-1", 0 ],
					"disabled" : 0,
					"hidden" : 0,
					"source" : [ "obj-4", 0 ]
				}

			}
, 			{
				"patchline" : 				{
					"destination" : [ "obj-5", 0 ],
					"disabled" : 0,
					"hidden" : 0,
					"source" : [ "obj-6", 0 ]
				}

			}
, 			{
				"patchline" : 				{
					"destination" : [ "obj-111", 0 ],
					"disabled" : 0,
					"hidden" : 0,
					"source" : [ "obj-77", 0 ]
				}

			}
, 			{
				"patchline" : 				{
					"destination" : [ "obj-6", 0 ],
					"disabled" : 0,
					"hidden" : 0,
					"source" : [ "obj-78", 0 ]
				}

			}
, 			{
				"patchline" : 				{
					"destination" : [ "obj-10", 0 ],
					"disabled" : 0,
					"hidden" : 0,
					"source" : [ "obj-79", 0 ]
				}

			}
, 			{
				"patchline" : 				{
					"destination" : [ "obj-7", 0 ],
					"disabled" : 0,
					"hidden" : 0,
					"source" : [ "obj-8", 0 ]
				}

			}
, 			{
				"patchline" : 				{
					"destination" : [ "obj-8", 0 ],
					"disabled" : 0,
					"hidden" : 0,
					"source" : [ "obj-80", 0 ]
				}

			}
, 			{
				"patchline" : 				{
					"destination" : [ "obj-78", 0 ],
					"disabled" : 0,
					"hidden" : 0,
					"source" : [ "obj-82", 0 ]
				}

			}
, 			{
				"patchline" : 				{
					"destination" : [ "obj-80", 0 ],
					"disabled" : 0,
					"hidden" : 0,
					"source" : [ "obj-83", 0 ]
				}

			}
, 			{
				"patchline" : 				{
					"destination" : [ "obj-2", 0 ],
					"disabled" : 0,
					"hidden" : 0,
					"source" : [ "obj-84", 0 ]
				}

			}
, 			{
				"patchline" : 				{
					"destination" : [ "obj-77", 0 ],
					"disabled" : 0,
					"hidden" : 0,
					"source" : [ "obj-85", 0 ]
				}

			}
 ],
		"parameters" : 		{
			"obj-15::obj-17" : [ "live.dial[1]", "pitch", 0 ],
			"obj-17::obj-24" : [ "live.text", "live.text", 0 ],
			"obj-26::obj-8" : [ "in1", "in1", 0 ],
			"obj-26::obj-37" : [ "Mute", "Mute", 0 ],
			"obj-26::obj-23" : [ "in2", "in2", 0 ],
			"obj-15::obj-59" : [ "speeeeeeed", "speed", 0 ],
			"obj-17::obj-29" : [ "live.text[1]", "live.text[1]", 0 ],
			"obj-26::obj-36" : [ "in3", "in3", 0 ],
			"obj-15::obj-63" : [ "live.dial", "t mult", 0 ],
			"obj-26::obj-30" : [ "in4", "in4", 0 ],
			"obj-15::obj-79" : [ "live.dial[2]", "spread", 0 ]
		}
,
		"dependency_cache" : [ 			{
				"name" : "BaseStationCommunication.maxpat",
				"bootpath" : "/_projects/PoiController/Max/Communication",
				"type" : "JSON",
				"implicit" : 1
			}
, 			{
				"name" : "Twangle.maxpat",
				"bootpath" : "/_projects/PoiController/Max/Instruments",
				"type" : "JSON",
				"implicit" : 1
			}
, 			{
				"name" : "jongly.aif",
				"bootpath" : "C74:/media/msp",
				"type" : "AIFF",
				"implicit" : 1
			}
, 			{
				"name" : "bp.Stereo Mixer.maxpat",
				"bootpath" : "C74:/packages/BEAP/clippings/BEAP/Mixers",
				"type" : "JSON",
				"implicit" : 1
			}
 ],
		"autosave" : 0
	}

}
