{
	"patcher" : 	{
		"fileversion" : 1,
		"appversion" : 		{
			"major" : 7,
			"minor" : 1,
			"revision" : 0,
			"architecture" : "x86",
			"modernui" : 1
		}
,
		"rect" : [ 59.0, 104.0, 640.0, 480.0 ],
		"bglocked" : 0,
		"openinpresentation" : 0,
		"default_fontsize" : 12.0,
		"default_fontface" : 0,
		"default_fontname" : "Arial",
		"gridonopen" : 1,
		"gridsize" : [ 15.0, 15.0 ],
		"gridsnaponopen" : 1,
		"objectsnaponopen" : 1,
		"statusbarvisible" : 2,
		"toolbarvisible" : 1,
		"lefttoolbarpinned" : 0,
		"toptoolbarpinned" : 0,
		"righttoolbarpinned" : 0,
		"bottomtoolbarpinned" : 0,
		"toolbars_unpinned_last_save" : 0,
		"tallnewobj" : 0,
		"boxanimatetime" : 200,
		"enablehscroll" : 1,
		"enablevscroll" : 1,
		"devicewidth" : 0.0,
		"description" : "",
		"digest" : "",
		"tags" : "",
		"style" : "",
		"subpatcher_template" : "",
		"boxes" : [ 			{
				"box" : 				{
					"id" : "obj-10",
					"maxclass" : "newobj",
					"numinlets" : 6,
					"numoutlets" : 1,
					"outlettype" : [ "" ],
					"patching_rect" : [ 401.0, 129.0, 135.0, 22.0 ],
					"style" : "",
					"text" : "scale -180 180 110 440"
				}

			}
, 			{
				"box" : 				{
					"id" : "obj-9",
					"maxclass" : "newobj",
					"numinlets" : 6,
					"numoutlets" : 1,
					"outlettype" : [ "" ],
					"patching_rect" : [ 249.0, 129.0, 142.0, 22.0 ],
					"style" : "",
					"text" : "scale -180. 180. 110 440"
				}

			}
, 			{
				"box" : 				{
					"id" : "obj-8",
					"maxclass" : "newobj",
					"numinlets" : 6,
					"numoutlets" : 1,
					"outlettype" : [ "" ],
					"patching_rect" : [ 114.0, 129.0, 121.0, 22.0 ],
					"style" : "",
					"text" : "scale 0. 360 110 440"
				}

			}
, 			{
				"box" : 				{
					"id" : "obj-7",
					"maxclass" : "newobj",
					"numinlets" : 3,
					"numoutlets" : 1,
					"outlettype" : [ "signal" ],
					"patching_rect" : [ 300.0, 206.0, 81.0, 22.0 ],
					"style" : "",
					"text" : "rect~ 440 0.5"
				}

			}
, 			{
				"box" : 				{
					"id" : "obj-6",
					"maxclass" : "newobj",
					"numinlets" : 3,
					"numoutlets" : 1,
					"outlettype" : [ "signal" ],
					"patching_rect" : [ 204.0, 206.0, 81.0, 22.0 ],
					"style" : "",
					"text" : "rect~ 440 0.5"
				}

			}
, 			{
				"box" : 				{
					"bgmode" : 0,
					"border" : 0,
					"clickthrough" : 0,
					"enablehscroll" : 0,
					"enablevscroll" : 0,
					"extract" : 1,
					"id" : "obj-5",
					"lockeddragscroll" : 0,
					"maxclass" : "bpatcher",
					"name" : "bp.Pan Mixer.maxpat",
					"numinlets" : 8,
					"numoutlets" : 2,
					"offset" : [ 0.0, 0.0 ],
					"outlettype" : [ "signal", "signal" ],
					"patching_rect" : [ 139.0, 252.0, 395.0, 217.0 ],
					"varname" : "bp.Pan Mixer",
					"viewvisibility" : 1
				}

			}
, 			{
				"box" : 				{
					"id" : "obj-4",
					"maxclass" : "newobj",
					"numinlets" : 3,
					"numoutlets" : 1,
					"outlettype" : [ "signal" ],
					"patching_rect" : [ 107.0, 210.0, 81.0, 22.0 ],
					"style" : "",
					"text" : "rect~ 440 0.5"
				}

			}
, 			{
				"box" : 				{
					"id" : "obj-2",
					"maxclass" : "ezdac~",
					"numinlets" : 2,
					"numoutlets" : 0,
					"patching_rect" : [ 36.0, 428.0, 45.0, 45.0 ],
					"style" : ""
				}

			}
, 			{
				"box" : 				{
					"bgmode" : 0,
					"border" : 0,
					"clickthrough" : 0,
					"enablehscroll" : 0,
					"enablevscroll" : 0,
					"id" : "obj-1",
					"lockeddragscroll" : 0,
					"maxclass" : "bpatcher",
					"name" : "ReceiveOrientation.maxpat",
					"numinlets" : 1,
					"numoutlets" : 3,
					"offset" : [ 0.0, 0.0 ],
					"outlettype" : [ "float", "float", "float" ],
					"patching_rect" : [ 132.0, 23.0, 249.0, 37.0 ],
					"viewvisibility" : 1
				}

			}
 ],
		"lines" : [ 			{
				"patchline" : 				{
					"destination" : [ "obj-10", 0 ],
					"disabled" : 0,
					"hidden" : 0,
					"source" : [ "obj-1", 2 ]
				}

			}
, 			{
				"patchline" : 				{
					"destination" : [ "obj-8", 0 ],
					"disabled" : 0,
					"hidden" : 0,
					"source" : [ "obj-1", 0 ]
				}

			}
, 			{
				"patchline" : 				{
					"destination" : [ "obj-9", 0 ],
					"disabled" : 0,
					"hidden" : 0,
					"source" : [ "obj-1", 1 ]
				}

			}
, 			{
				"patchline" : 				{
					"destination" : [ "obj-7", 0 ],
					"disabled" : 0,
					"hidden" : 0,
					"source" : [ "obj-10", 0 ]
				}

			}
, 			{
				"patchline" : 				{
					"destination" : [ "obj-5", 0 ],
					"disabled" : 0,
					"hidden" : 0,
					"source" : [ "obj-4", 0 ]
				}

			}
, 			{
				"patchline" : 				{
					"destination" : [ "obj-2", 1 ],
					"disabled" : 0,
					"hidden" : 0,
					"source" : [ "obj-5", 1 ]
				}

			}
, 			{
				"patchline" : 				{
					"destination" : [ "obj-2", 0 ],
					"disabled" : 0,
					"hidden" : 0,
					"source" : [ "obj-5", 0 ]
				}

			}
, 			{
				"patchline" : 				{
					"destination" : [ "obj-5", 1 ],
					"disabled" : 0,
					"hidden" : 0,
					"source" : [ "obj-6", 0 ]
				}

			}
, 			{
				"patchline" : 				{
					"destination" : [ "obj-5", 2 ],
					"disabled" : 0,
					"hidden" : 0,
					"source" : [ "obj-7", 0 ]
				}

			}
, 			{
				"patchline" : 				{
					"destination" : [ "obj-4", 0 ],
					"disabled" : 0,
					"hidden" : 0,
					"source" : [ "obj-8", 0 ]
				}

			}
, 			{
				"patchline" : 				{
					"destination" : [ "obj-6", 0 ],
					"disabled" : 0,
					"hidden" : 0,
					"source" : [ "obj-9", 0 ]
				}

			}
 ],
		"parameters" : 		{
			"obj-5::obj-74" : [ "ch8_level", "8", 0 ],
			"obj-5::obj-86" : [ "ch7_pan", "Pan", 0 ],
			"obj-5::obj-42" : [ "ch2_level", "2", 0 ],
			"obj-5::obj-28" : [ "ch1_mute", "Mute", 0 ],
			"obj-5::obj-65" : [ "ch3_pan", "Pan", 0 ],
			"obj-5::obj-41" : [ "ch2_mute", "Mute", 0 ],
			"obj-5::obj-75" : [ "ch8_pan", "Pan", 0 ],
			"obj-5::obj-63" : [ "ch4_mute", "Mute", 0 ],
			"obj-5::obj-64" : [ "ch3_level", "3", 0 ],
			"obj-5::obj-53" : [ "ch3_mute", "Mute", 0 ],
			"obj-5::obj-54" : [ "ch4_level", "4", 0 ],
			"obj-5::obj-94" : [ "ch7_mute", "Mute", 0 ],
			"obj-5::obj-55" : [ "ch4_pan", "Pan", 0 ],
			"obj-5::obj-73" : [ "ch5_mute", "Mute", 0 ],
			"obj-5::obj-23" : [ "ch1_level", "1", 0 ],
			"obj-5::obj-95" : [ "ch6_level", "6", 0 ],
			"obj-5::obj-106" : [ "ch5_pan", "Pan", 0 ],
			"obj-5::obj-104" : [ "ch8_mute", "Mute", 0 ],
			"obj-5::obj-105" : [ "ch5_level", "5", 0 ],
			"obj-5::obj-22" : [ "ch1_pan", "Pan", 0 ],
			"obj-5::obj-96" : [ "ch6_pan", "Pan", 0 ],
			"obj-5::obj-84" : [ "ch6_mute", "Mute", 0 ],
			"obj-5::obj-85" : [ "ch7_level", "7", 0 ],
			"obj-5::obj-37" : [ "Mute", "Mute", 0 ],
			"obj-5::obj-43" : [ "ch2_pan", "Pan", 0 ]
		}
,
		"dependency_cache" : [ 			{
				"name" : "ReceiveOrientation.maxpat",
				"bootpath" : "/_projects/MaxPatches/Communication",
				"type" : "JSON",
				"implicit" : 1
			}
, 			{
				"name" : "bp.Pan Mixer.maxpat",
				"bootpath" : "C74:/packages/BEAP/clippings/BEAP/Mixers",
				"type" : "JSON",
				"implicit" : 1
			}
, 			{
				"name" : "M4L.pan1~.maxpat",
				"bootpath" : "C74:/patchers/m4l/Tools resources",
				"type" : "JSON",
				"implicit" : 1
			}
 ],
		"autosave" : 0
	}

}
